<svg width="233" height="143" viewBox="0 0 233 143" fill="none" xmlns="http://www.w3.org/2000/svg">
<path d="M43 92L0 143H32.5L43 92Z" fill="#046484"/>
<path d="M17 68L0 143L43 92L17 68Z" fill="#348474"/>
<path d="M17 68L43 92L50 58L17 68Z" fill="#454545"/>
<path d="M26 26L17 68L50 58L26 26Z" fill="#78B7B0"/>
<path d="M26 26L50 58.5L55.5 31L26 26Z" fill="#A8CCBC"/>
<path d="M32.5 0L55.5 31L26 26L32.5 0Z" fill="#348474"/>
<path d="M32.5 0H77L55.5 31L32.5 0Z" fill="#046484"/>
<path d="M55 31L77 0L66 56L55 31Z" fill="#78B7B0"/>
<path d="M66 56L77 0L95 46L66 56Z" fill="#454545"/>
<path d="M66 56L95 46L113 91L66 56Z" fill="#348474"/>
<path d="M78 88.5L66 56L113 91L78 88.5Z" fill="#78B7B0"/>
<path d="M78 88.5L113 91L93 129L78 88.5Z" fill="#046484"/>
<path d="M113 91L120 109L93 129L113 91Z" fill="#454545"/>
<path d="M120 109L93 129L98 143L120 109Z" fill="#348474"/>
<path d="M192.508 92L233 143H202.396L192.508 92Z" fill="#046484"/>
<path d="M216.992 68L233 143L192.508 92L216.992 68Z" fill="#348474"/>
<path d="M216.992 68L192.508 92L185.917 58L216.992 68Z" fill="#454545"/>
<path d="M208.517 26L216.992 68L185.917 58L208.517 26Z" fill="#78B7B0"/>
<path d="M208.517 26L185.917 58.5L180.737 31L208.517 26Z" fill="#A8CCBC"/>
<path d="M202.396 0L180.737 31L208.517 26L202.396 0Z" fill="#348474"/>
<path d="M202.396 0H160.492L180.737 31L202.396 0Z" fill="#046484"/>
<path d="M181.208 31L160.492 0L170.85 56L181.208 31Z" fill="#78B7B0"/>
<path d="M170.85 56L160.492 0L143.542 46L170.85 56Z" fill="#454545"/>
<path d="M170.85 56L143.542 46L126.592 91L170.85 56Z" fill="#348474"/>
<path d="M159.55 88.5L170.85 56L126.592 91L159.55 88.5Z" fill="#78B7B0"/>
<path d="M159.55 88.5L126.592 91L145.425 129L159.55 88.5Z" fill="#046484"/>
<path d="M126.592 91L120 109L145.425 129L126.592 91Z" fill="#454545"/>
<path d="M120 109L145.425 129L140.717 143L120 109Z" fill="#348474"/>
<path d="M98 143L120 109L140.729 143H98Z" fill="#78B7B0"/>
</svg>
